<?xml version="1.0" standalone="no"?><!DOCTYPE svg PUBLIC "-//W3C//DTD SVG 1.1//EN" "http://www.w3.org/Graphics/SVG/1.1/DTD/svg11.dtd"><svg t="1607576693743" class="icon" viewBox="0 0 1024 1024" version="1.1" xmlns="http://www.w3.org/2000/svg" p-id="12605" xmlns:xlink="http://www.w3.org/1999/xlink" width="200" height="200"><defs><style type="text/css"></style></defs><path d="M930.2 475.1c-122.4-171-262.6-257.7-416.6-257.7S219.5 304.1 97 475.1l-12.4 17.2L97 509.5c122.5 171 262.7 257.7 416.6 257.7 154 0 294.1-86.7 416.6-257.7l12.3-17.2-12.3-17.2z m-60.6 17.2C762 635.5 642.3 708.1 513.6 708.1c-128.6 0-248.4-72.6-356-215.8 107.5-143.2 227.3-215.8 356-215.8 128.7-0.1 248.5 72.5 356 215.8z" p-id="12606"></path><path d="M513.6 330.2c-89.4 0-162.1 72.7-162.1 162.1 0 89.3 72.7 162 162.1 162 89.4 0 162.1-72.7 162.1-162 0-89.4-72.7-162.1-162.1-162.1z m103 162.1c0 56.8-46.2 103-103 103s-103-46.2-103-103 46.2-103 103-103 103 46.2 103 103z" p-id="12607"></path></svg>