<?xml version="1.0" standalone="no"?><!DOCTYPE svg PUBLIC "-//W3C//DTD SVG 1.1//EN" "http://www.w3.org/Graphics/SVG/1.1/DTD/svg11.dtd"><svg t="1607576409920" class="icon" viewBox="0 0 1024 1024" version="1.1" xmlns="http://www.w3.org/2000/svg" p-id="7938" xmlns:xlink="http://www.w3.org/1999/xlink" width="200" height="200"><defs><style type="text/css"></style></defs><path d="M955.48 848.78l-0.39-0.7-299.62-445.4v-3.51V65H403.32v328c-0.69 0.91-1.6 2-2.29 2.86-1.31 1.59-2.79 3.39-4.17 5.35L77.43 847.76l-0.55 1c-17.27 30.55-20.36 59.88-8.49 80.48C80.76 950.65 108.64 963 144.87 963h742.65c36.17 0 64-12.32 76.44-33.78 11.89-20.63 8.8-49.93-8.48-80.44zM431 425.57l0.13-0.18c0.45-0.65 1.37-1.76 2.25-2.83 4.72-5.74 11.85-14.4 11.85-26.5V106.9h168.3V398.42c-0.12 6.77-0.31 17 6.54 26.82L750.42 619c-41.95 20.15-91.63 38.44-200.18-35-73.82-49.93-165.18-30.91-227.54-7z m496.6 482.61C924 914.56 910.11 921 887.52 921H144.87c-22.65 0-36.48-6.41-40.14-12.75-3.18-5.52-1.94-19.69 8.15-37.94l175.79-245.74c50-25.22 164.51-71.17 248-14.76 64.37 43.54 111 57.3 147.5 57.3 34.63 0 60.1-12.39 82.86-23.48l152.33 226.51c10.27 18.39 11.57 32.33 8.28 38.04z" p-id="7939"></path><path d="M307.18 738.75a82.16 82.16 0 1 0 82.16 82.15 82.25 82.25 0 0 0-82.16-82.15zM739 791.31a40.86 40.86 0 1 0 40.86 40.86A40.91 40.91 0 0 0 739 791.31zM503.18 686.18a30.36 30.36 0 1 0 30.35 30.36 30.4 30.4 0 0 0-30.35-30.36zM575 310a15 15 0 0 0 15-15V129.77a15 15 0 0 0-30 0V295a15 15 0 0 0 15 15zM575 385.09a15 15 0 0 0 15-15v-15a15 15 0 1 0-30 0v15a15 15 0 0 0 15 15z" p-id="7940"></path></svg>