<?xml version="1.0" standalone="no"?><!DOCTYPE svg PUBLIC "-//W3C//DTD SVG 1.1//EN" "http://www.w3.org/Graphics/SVG/1.1/DTD/svg11.dtd"><svg t="1607576571674" class="icon" viewBox="0 0 1024 1024" version="1.1" xmlns="http://www.w3.org/2000/svg" p-id="9905" xmlns:xlink="http://www.w3.org/1999/xlink" width="200" height="200"><defs><style type="text/css"></style></defs><path d="M512 512m-512 0a512 512 0 1 0 1024 0 512 512 0 1 0-1024 0Z" fill="#82A4FB" p-id="9906"></path><path d="M612.78 650.81a168.53 168.53 0 0 1-38 53.7 177.23 177.23 0 0 1-56.31 36.21 185.82 185.82 0 0 1-137.82 0 177.23 177.23 0 0 1-56.31-36.21 168.21 168.21 0 0 1-38-53.7 162.42 162.42 0 0 1 0-131.44 168.14 168.14 0 0 1 38-53.71 177.2 177.2 0 0 1 56.31-36.2 185.69 185.69 0 0 1 137.82 0 177.2 177.2 0 0 1 56.31 36.2 168.46 168.46 0 0 1 38 53.71 162.42 162.42 0 0 1 0 131.44z m191.07-357.73a24.73 24.73 0 0 0-6.47-16.82 27.13 27.13 0 0 0-17.85-8.63h-0.29L625.55 257c-14.6-1-27.31 9.47-28.37 23.4s9.93 26.06 24.54 27.07l95.68 6.61-113.7 108C562.9 387 508.86 365.6 449.58 365.6c-127.11 0-230.15 98.27-230.15 219.49s103 219.48 230.15 219.48 230.15-98.27 230.15-219.48a211.55 211.55 0 0 0-40.91-125L745.91 358.4l-6 82.08c-1 13.94 10 26 24.61 27 0.64 0 1.26 0.06 1.89 0.06 13.8 0 25.46-10.19 26.44-23.53l11-149.41c0-0.51 0.05-1 0.05-1.53-0.04-0.18-0.05 0.09-0.05 0.01z" fill="#FFFFFF" p-id="9907"></path></svg>