<?xml version="1.0" standalone="no"?><!DOCTYPE svg PUBLIC "-//W3C//DTD SVG 1.1//EN" "http://www.w3.org/Graphics/SVG/1.1/DTD/svg11.dtd"><svg t="1607576533978" class="icon" viewBox="0 0 1024 1024" version="1.1" xmlns="http://www.w3.org/2000/svg" p-id="9159" xmlns:xlink="http://www.w3.org/1999/xlink" width="200" height="200"><defs><style type="text/css"></style></defs><path d="M221.829127 207.950146l410.533498 0c43.454432 0 82.932132 17.755386 111.526526 46.348608 28.588253 28.593222 46.338227 68.069305 46.338227 111.509676l0 17.72264-55.822617 0 0-17.72264c0-28.042683-11.477873-53.546543-29.976937-72.055083-18.517484-18.494213-44.030577-29.993105-72.066222-29.993105L221.829127 263.760243c-27.418566 0-52.396447 10.93812-70.780897 28.649504-0.405246 0.462534-0.827889 0.914836-1.267928 1.353834l0-0.011256c-18.515438 18.508539-29.994334 44.0124-29.994334 72.055083l0 292.382117c0 27.427676 10.939591 52.420907 28.669098 70.816882 0.462553 0.394996 0.885196 0.805342 1.324212 1.24127l-0.056284 0.045025 0 0c18.499064 18.475793 44.030577 29.946033 72.105109 29.946033l410.533498 0c27.953777 0 53.395235-11.419074 71.894299-29.831422l0.153502-0.158612 0.023537 0 0.03377 0.045025c18.47655-18.498306 29.937026-44.023656 29.937026-72.103178l0-17.709337 55.822617 0 0 17.709337c0 43.366693-17.744857 82.801844-46.338227 111.413486L724.154905 749.972926l19.733222 19.726274-0.520884 0.521886c-28.553459 28.290323-67.82035 45.827745-111.006665 45.827745L221.829127 816.048831c-43.358237 0-82.795004-17.744129-111.411911-46.349631l19.617584-19.726274-19.732199 19.739577c-0.538281-0.560772-1.075539-1.127683-1.578003-1.726318-27.644726-28.456099-44.761247-67.229171-44.761247-109.796662L63.963351 365.80843c0-43.440371 17.76737-82.915431 46.340273-111.509676l0-0.01228c0.576145-0.564865 1.153313-1.100054 1.770392-1.609661C140.530258 225.036289 179.292639 207.950146 221.829127 207.950146L221.829127 207.950146 221.829127 207.950146zM248.404454 367.438557c-15.401389 0-27.90261 12.499685-27.90261 27.901467 0 15.407921 12.501221 27.907607 27.90261 27.907607l332.26988 0c15.41981 0 27.920007-12.500709 27.920007-27.907607 0-15.401782-12.500197-27.901467-27.920007-27.901467L248.404454 367.438557 248.404454 367.438557 248.404454 367.438557zM245.439815 485.563908c-15.402413 0-27.89647 12.493545-27.89647 27.906583 0 15.414061 12.494057 27.906583 27.89647 27.906583l236.300293 0c15.404459 0 27.904657-12.492522 27.904657-27.906583 0-15.414061-12.500197-27.906583-27.904657-27.906583L245.439815 485.563908 245.439815 485.563908 245.439815 485.563908zM246.925716 605.181239c-15.403436 0-27.90261 12.494569-27.90261 27.906583s12.499174 27.906583 27.90261 27.906583l137.348669 0c15.402413 0 27.897493-12.494569 27.897493-27.906583s-12.495081-27.906583-27.897493-27.906583L246.925716 605.181239 246.925716 605.181239 246.925716 605.181239zM628.843331 522.343579l277.640487-199.352327 51.956408 72.210625L680.816112 594.554204 628.843331 522.343579 628.843331 522.343579zM614.667913 532.585851l51.647357 72.428589-104.350809 20.440541L614.667913 532.585851 614.667913 532.585851zM614.667913 532.585851" p-id="9160"></path></svg>