<?xml version="1.0" standalone="no"?><!DOCTYPE svg PUBLIC "-//W3C//DTD SVG 1.1//EN" "http://www.w3.org/Graphics/SVG/1.1/DTD/svg11.dtd"><svg t="1607576873895" class="icon" viewBox="0 0 1024 1024" version="1.1" xmlns="http://www.w3.org/2000/svg" p-id="17233" xmlns:xlink="http://www.w3.org/1999/xlink" width="200" height="200"><defs><style type="text/css"></style></defs><path d="M440.576 535.808 345.344 535.808c-26.24 0-47.616 21.376-47.616 47.616l0 95.232c0 26.24 21.376 47.616 47.616 47.616l95.232 0c26.24 0 47.616-21.376 47.616-47.616L488.192 583.424C488.192 557.184 466.816 535.808 440.576 535.808zM440.576 297.664 345.344 297.664c-26.24 0-47.616 21.376-47.616 47.616l0 95.232c0 26.24 21.376 47.616 47.616 47.616l95.232 0c26.24 0 47.616-21.376 47.616-47.616L488.192 345.28C488.192 319.04 466.816 297.664 440.576 297.664zM678.656 297.664 583.424 297.664c-26.24 0-47.616 21.376-47.616 47.616l0 95.232c0 26.24 21.376 47.616 47.616 47.616l95.232 0c26.24 0 47.616-21.376 47.616-47.616L726.272 345.28C726.336 319.04 704.96 297.664 678.656 297.664zM512 7.744C233.472 7.744 7.744 233.472 7.744 512S233.472 1016.256 512 1016.256 1016.256 790.528 1016.256 512 790.528 7.744 512 7.744zM512 991.04c-264.576 0-479.04-214.464-479.04-479.04S247.424 32.96 512 32.96 991.04 247.424 991.04 512 776.576 991.04 512 991.04zM678.656 537.216 583.424 537.216c-26.24 0-47.616 21.376-47.616 47.616l0 95.232c0 26.24 21.376 47.616 47.616 47.616l95.232 0c26.24 0 47.616-21.376 47.616-47.616L726.272 584.832C726.336 558.592 704.96 537.216 678.656 537.216z" p-id="17234"></path></svg>