<?xml version="1.0" standalone="no"?><!DOCTYPE svg PUBLIC "-//W3C//DTD SVG 1.1//EN" "http://www.w3.org/Graphics/SVG/1.1/DTD/svg11.dtd"><svg t="1607576359411" class="icon" viewBox="0 0 1024 1024" version="1.1" xmlns="http://www.w3.org/2000/svg" p-id="7027" xmlns:xlink="http://www.w3.org/1999/xlink" width="200" height="200"><defs><style type="text/css"></style></defs><path d="M765.793488 897.027008 329.124949 897.027008c-53.591665 0-97.037609-43.047414-97.037609-96.15001l0-576.896864c0-53.103995 43.445944-96.151609 97.037609-96.151609l339.63093 0 194.075217 192.300021c0 35.304663 0 480.749852 0 480.749852C862.831097 853.979394 819.385153 897.027008 765.793488 897.027008zM668.75588 195.90197c0 57.232996 0 76.14997 0 76.14997 0 26.549799 21.722272 48.076604 48.519704 48.076604l72.767264 0L668.75588 195.90197zM814.311593 368.202151c-56.488501 0-97.037609 0-97.037609 0-53.593264 0-97.037609-43.044416-97.037609-96.151609 0 0-1.130633-38.581442-0.687534-96.146812l-290.423693 0c-26.795832 0-48.518105 21.51921-48.518105 48.075005l0 576.896864c0 26.549799 21.722272 48.075005 48.518105 48.075005l436.668539 0c26.795832 0 48.518105-21.526805 48.518105-48.075005L814.311793 368.202151zM693.014832 704.725388 401.902006 704.725388c-13.397916 0-24.258952-10.764102-24.258952-24.035904 0-13.277998 10.859637-24.040501 24.258952-24.040501l291.113025 0c13.397916 0 24.257553 10.762703 24.257553 24.040501C717.272385 693.961286 706.412748 704.725388 693.014832 704.725388zM693.014832 560.500573 401.902006 560.500573c-13.397916 0-24.258952-10.761104-24.258952-24.039101 0-13.271802 10.859637-24.034305 24.258952-24.034305l291.113025 0c13.397916 0 24.257553 10.762703 24.257553 24.034305C717.272385 549.739469 706.412748 560.500573 693.014832 560.500573z" p-id="7028"></path></svg>