<?xml version="1.0" standalone="no"?><!DOCTYPE svg PUBLIC "-//W3C//DTD SVG 1.1//EN" "http://www.w3.org/Graphics/SVG/1.1/DTD/svg11.dtd"><svg t="1607576704571" class="icon" viewBox="0 0 1024 1024" version="1.1" xmlns="http://www.w3.org/2000/svg" p-id="12862" xmlns:xlink="http://www.w3.org/1999/xlink" width="200" height="200"><defs><style type="text/css"></style></defs><path d="M951.909663 876.954132 680.841811 611.718997c43.694214-56.792245 69.68562-127.603478 69.68562-204.349755 0-186.032977-152.673928-337.376636-340.241831-337.376636S70.043769 221.336265 70.043769 407.369242c0 186.032977 152.673928 337.376636 340.241831 337.376636 71.936844 0 138.654942-22.205256 193.605276-60.066753l273.319077 267.48636c4.195463 4.093135 13.098031 1.739582 19.954032-5.116419l49.833916-50.038573C953.853902 889.949835 956.105126 881.047267 951.909663 876.954132L951.909663 876.954132zM138.092136 407.369242c0-148.78545 122.077746-269.94224 272.193465-269.94224 150.115719 0 272.193465 121.054462 272.193465 269.94224 0 148.78545-122.077746 269.94224-272.193465 269.94224C260.169881 677.209154 138.092136 556.154692 138.092136 407.369242L138.092136 407.369242z" p-id="12863"></path></svg>