<?xml version="1.0" standalone="no"?><!DOCTYPE svg PUBLIC "-//W3C//DTD SVG 1.1//EN" "http://www.w3.org/Graphics/SVG/1.1/DTD/svg11.dtd"><svg t="1607576774881" class="icon" viewBox="0 0 1024 1024" version="1.1" xmlns="http://www.w3.org/2000/svg" p-id="13746" xmlns:xlink="http://www.w3.org/1999/xlink" width="200" height="200"><defs><style type="text/css"></style></defs><path d="M451.5328 4.2496C213.9648 29.696 23.0912 229.0688 1.8688 466.6368c-8.4736 106.0352 12.7232 203.5968 59.392 288.4608 0 4.224 4.2496 8.4736 0 8.4736 0 0-50.8928 216.32-50.8928 224.8192 4.224 8.4992 8.4736 12.7232 16.9472 16.9728 8.4992 4.2496 33.9456 0 33.9456 0l173.9264-59.392c148.48 93.3376 335.104 106.0608 500.5568 21.2224 161.2032-80.6144 267.264-250.2912 275.7376-432.6912C1032.704 220.5952 765.4656-33.9456 451.5328 4.2496zM731.52 869.632c-144.2304 89.088-318.1568 80.5888-449.664-4.2496 0 0-4.2496-4.2496-12.7232-8.4992h-8.4992l-152.704 55.168 38.1696-156.9536c4.2496-16.9728 0-29.696-8.4736-46.6688a426.3168 426.3168 0 0 1-50.9184-203.6224c0-233.3184 190.8992-424.192 424.192-424.192 258.7904 0 458.1632 229.0432 419.9936 492.0576-21.2224 127.2576-93.3376 237.568-199.3728 296.96z" p-id="13747"></path><path d="M561.8176 793.2672c-21.1968-4.2496-33.92-29.696-29.696-50.9184l131.5072-492.0576c4.2496-21.2224 29.696-33.9456 50.9184-29.696 21.1968 4.224 33.92 29.696 29.696 50.8928l-131.5072 492.0832c-4.2496 25.4464-25.4464 38.1696-50.9184 29.696z m-250.2656 0c-21.2224-4.2496-33.9456-29.696-29.696-50.9184l131.5072-492.0576c4.224-21.2224 29.696-33.9456 50.8928-29.696 21.2224 4.224 33.9456 29.696 29.696 50.8928l-131.5072 492.0832a37.632 37.632 0 0 1-50.8928 29.696z" p-id="13748"></path><path d="M213.9648 402.9952c0-25.4464 21.2224-42.4192 42.4448-42.4192H765.44c21.2224 0 42.4192 16.9728 42.4192 42.4192 0 21.2224-16.9728 42.4192-42.4192 42.4192H256.4096c-25.472 0-42.4448-16.9728-42.4448-42.4192z m0 207.872c0-25.472 21.2224-42.4192 42.4448-42.4192H765.44c21.2224 0 42.4192 21.1968 42.4192 42.4192 0 25.4464-16.9728 42.4192-42.4192 42.4192H256.4096c-25.472 0-42.4448-16.9728-42.4448-42.4192z" p-id="13749"></path></svg>