<?xml version="1.0" standalone="no"?><!DOCTYPE svg PUBLIC "-//W3C//DTD SVG 1.1//EN" "http://www.w3.org/Graphics/SVG/1.1/DTD/svg11.dtd"><svg t="1607764484662" class="icon" viewBox="0 0 1024 1024" version="1.1" xmlns="http://www.w3.org/2000/svg" p-id="3189" xmlns:xlink="http://www.w3.org/1999/xlink" width="200" height="200"><defs><style type="text/css"></style></defs><path d="M955.712 16.064H68.288A68.48 68.48 0 0 0 0 84.544v683.968c0 37.824 30.592 68.352 68.288 68.352h409.472v102.656H204.8a34.176 34.176 0 0 0 0 68.352h614.4a34.112 34.112 0 1 0 0-68.352H546.112v-102.656h409.536c37.696 0 68.288-30.592 68.288-68.352V84.544a68.352 68.352 0 0 0-68.224-68.48z m0 752.448H68.288V700.16h887.36v68.352zM68.288 631.68V84.544h887.36V631.68H68.288z" p-id="3190"></path></svg>